<?xml version="1.0" encoding="UTF-8" standalone="no"?>
<!DOCTYPE svg PUBLIC "-//W3C//DTD SVG 1.1//EN" "http://www.w3.org/Graphics/SVG/1.1/DTD/svg11.dtd">
<svg width="2032.00" height="1729.00" viewBox="0.00 0.00 2032.00 1729.00" xmlns="http://www.w3.org/2000/svg" xmlns:xlink="http://www.w3.org/1999/xlink">
<g stroke-linecap="round" transform="translate(2.00, 0.00)" id="Capa_25_-_copia">
<path d="M507.39,-114.47 C503.24,-116.02 492.95,-116.26 489.57,-116.19 C489.57,-116.19 492.56,-113.55 492.56,-113.55" fill="none" stroke="rgb(40, 37, 35)" stroke-width="60.00" stroke-opacity="1.00" stroke-linejoin="round"/>
<path d="M916.96,659.26 C917.24,689.88 917.87,740.30 918.50,757.53 C918.92,765.18 920.31,782.60 921.36,787.72 C922.54,793.26 925.73,800.42 928.04,802.82 C930.10,804.88 934.12,807.11 936.06,807.29 C938.35,807.44 942.97,805.36 944.98,803.30 C946.16,802.03 947.96,798.97 948.78,796.76 C950.38,792.33 951.38,785.61 951.76,780.20 C952.43,767.05 952.95,732.57 953.03,713.58 C952.83,682.04 952.60,648.11 952.59,645.73" fill="none" stroke="rgb(255, 255, 255)" stroke-width="25.00" stroke-opacity="1.00" stroke-linejoin="miter"/>
<path d="M992.72,634.54 C992.98,662.85 993.85,740.30 994.91,764.54 C995.34,771.14 996.61,788.11 998.67,794.94 C1000.14,799.67 1003.56,804.66 1006.03,806.65 C1008.04,808.19 1012.15,809.54 1014.31,809.19 C1016.46,808.79 1021.46,805.26 1023.08,802.57 C1025.02,799.22 1027.37,788.81 1027.51,785.17 C1028.07,772.99 1028.61,741.54 1028.75,724.30 C1028.40,685.85 1027.88,630.60 1027.70,613.79" fill="none" stroke="rgb(255, 255, 255)" stroke-width="25.00" stroke-opacity="1.00" stroke-linejoin="miter"/>
<path d="M1068.47,609.25 C1068.71,636.20 1069.50,702.23 1070.04,741.31 C1070.31,749.35 1070.92,764.47 1071.25,771.55 C1071.65,777.66 1072.65,794.06 1076.21,802.19 C1077.67,805.42 1082.07,809.88 1084.04,811.00 C1086.10,812.11 1090.37,812.44 1092.56,811.49 C1093.62,811.00 1096.09,809.27 1097.04,808.30 C1098.22,807.03 1100.03,803.97 1100.84,801.76 C1102.48,797.19 1103.49,787.92 1103.62,785.37 C1104.07,772.94 1104.49,741.53 1104.59,724.42 C1104.19,684.60 1103.50,620.29 1103.21,595.81" fill="none" stroke="rgb(255, 255, 255)" stroke-width="25.00" stroke-opacity="1.00" stroke-linejoin="miter"/>
<path d="M1144.01,596.54 C1144.30,622.81 1145.13,688.27 1145.68,727.46 C1146.22,743.55 1147.94,782.16 1148.26,784.52 C1149.18,790.99 1152.13,800.67 1154.01,803.46 C1155.54,805.66 1160.03,809.19 1162.05,809.88 C1164.15,810.54 1168.46,809.79 1170.80,808.19 C1172.09,807.27 1174.23,805.03 1175.11,803.57 C1177.04,800.22 1179.38,789.78 1179.48,786.22 C1179.89,773.47 1180.42,744.30 1180.54,727.87 C1180.13,688.39 1179.37,622.61 1179.03,596.31" fill="none" stroke="rgb(255, 255, 255)" stroke-width="25.00" stroke-opacity="1.00" stroke-linejoin="miter"/>
<path d="M867.13,495.64 C871.52,498.41 882.51,505.36 889.10,509.53 C898.21,515.33 910.58,525.28 916.04,531.22 C918.91,534.38 924.28,541.51 926.60,545.46 C930.95,552.93 935.73,568.65 937.81,575.67 C938.54,578.12 939.55,581.52 939.83,582.48" fill="none" stroke="rgb(255, 255, 255)" stroke-width="25.00" stroke-opacity="1.00" stroke-linejoin="miter"/>
<path d="M985.11,486.62 C987.47,491.68 995.66,509.29 997.03,512.52 C1000.50,520.77 1005.57,537.86 1006.77,546.47 C1007.54,552.13 1007.93,568.61 1008.05,573.97" fill="none" stroke="rgb(255, 255, 255)" stroke-width="25.00" stroke-opacity="1.00" stroke-linejoin="miter"/>
<path d="M1068.75,494.88 C1068.61,501.08 1068.14,519.86 1067.75,525.65 C1066.67,541.18 1062.05,563.92 1061.26,567.73" fill="none" stroke="rgb(255, 255, 255)" stroke-width="25.00" stroke-opacity="1.00" stroke-linejoin="miter"/>
<path d="M1163.08,466.46 C1160.08,471.25 1149.10,488.74 1147.78,490.94 C1143.01,498.93 1135.46,515.28 1133.18,523.19 C1130.95,531.09 1129.20,553.00 1129.12,553.95" fill="none" stroke="rgb(255, 255, 255)" stroke-width="25.00" stroke-opacity="1.00" stroke-linejoin="miter"/>
<path d="M857.13,653.79 C861.29,678.85 871.67,741.45 877.90,778.98 C883.36,810.76 894.28,871.19 896.89,882.86 C898.31,888.87 901.54,898.82 903.57,903.47 C905.86,908.68 912.92,920.59 918.37,926.73 C921.48,930.18 926.94,934.53 930.40,936.12 C933.86,937.66 941.20,939.00 945.11,938.90 C948.93,938.78 956.57,937.67 960.82,936.62 C964.19,935.77 974.90,932.31 978.25,931.53 C982.26,930.63 989.00,930.06 992.18,930.36 C995.17,930.68 999.85,933.52 1001.61,935.61 C1003.40,937.80 1005.83,943.50 1006.66,947.47 C1008.14,954.75 1013.63,990.18 1014.99,999.72 C1016.47,1010.58 1019.30,1031.77 1020.18,1053.41 C1020.63,1076.10 1020.45,1118.49 1020.23,1133.71 C1019.47,1164.25 1017.47,1231.32 1016.22,1267.86 C1014.67,1307.16 1011.82,1378.67 1010.52,1410.90 C1009.49,1435.38 1006.93,1490.42 1006.91,1493.81 C1006.91,1497.41 1007.93,1504.25 1008.95,1507.41 C1010.26,1511.34 1012.90,1515.72 1015.92,1518.80 C1018.50,1521.37 1025.26,1526.32 1029.04,1528.41 C1032.87,1530.48 1040.28,1533.10 1044.40,1533.82 C1048.24,1534.45 1056.20,1533.10 1059.75,1531.86 C1063.60,1530.48 1071.19,1526.32 1074.66,1523.79 C1077.93,1521.37 1083.52,1515.72 1084.89,1513.47 C1086.16,1511.34 1088.48,1504.25 1089.00,1500.86 C1089.70,1496.04 1087.79,1455.49 1087.25,1443.31 C1086.12,1415.93 1083.58,1353.42 1082.17,1318.29 C1080.66,1278.67 1078.09,1204.76 1077.02,1170.48 C1076.67,1155.58 1076.09,1127.30 1075.86,1113.90 C1075.71,1089.13 1076.52,1042.62 1077.74,1027.75 C1078.12,1023.86 1082.10,995.03 1083.49,985.16 C1085.25,973.44 1090.36,944.05 1091.74,940.75 C1093.01,937.80 1096.56,933.52 1098.96,932.04 C1101.25,930.68 1107.42,930.06 1110.66,930.32 C1117.14,930.89 1136.59,937.18 1143.78,938.25 C1147.49,938.78 1155.22,938.99 1158.76,938.38 C1162.55,937.68 1169.46,934.58 1172.41,932.26 C1174.92,930.24 1180.73,923.77 1183.04,920.63 C1187.39,914.66 1193.07,903.20 1194.88,898.41 C1196.77,893.38 1199.26,884.38 1201.44,874.67 C1207.35,844.89 1220.02,766.84 1225.84,730.24 C1230.78,699.82 1239.27,648.64 1240.17,645.93 C1240.82,644.00 1248.30,626.23 1248.43,625.77 C1248.93,623.86 1248.66,619.95 1247.85,618.14 C1246.90,616.11 1245.13,613.98 1243.78,613.08 C1237.71,609.23 1227.91,604.63 1219.98,601.88 C1211.74,599.06 1193.18,595.01 1183.04,593.81 C1168.41,592.29 1140.69,591.37 1125.46,591.74 C1116.57,592.08 1102.46,593.46 1092.75,594.96 C1085.78,596.14 1065.71,600.51 1056.23,602.96 C1041.25,607.21 1009.19,618.37 992.39,624.93 C983.71,628.56 964.69,636.51 958.17,638.97 C949.19,642.20 935.61,646.18 929.11,647.48 C922.63,648.76 910.74,649.69 906.25,649.27 C900.73,648.72 892.82,646.18 889.46,643.92 C886.14,641.63 881.17,635.18 879.55,631.07 C875.31,620.03 873.61,594.73 873.56,593.91 C873.52,592.36 874.16,589.51 875.05,587.75 C875.87,586.23 878.45,584.68 879.93,584.78 C880.47,584.84 891.02,588.96 896.00,589.87 C900.28,590.62 906.83,590.21 908.12,590.14 C916.83,589.50 946.77,586.06 962.81,583.81 C999.59,578.43 1070.73,567.95 1105.08,562.85 C1123.55,560.01 1160.05,554.19 1176.18,551.17 C1190.88,548.13 1210.17,542.68 1217.61,540.33 C1219.28,539.79 1220.91,538.70 1222.57,536.92 C1223.81,535.54 1225.62,532.46 1226.17,530.77 C1226.70,529.05 1227.06,525.35 1226.88,523.41 C1226.85,523.07 1225.31,511.62 1225.25,507.98 C1225.23,505.97 1225.62,496.65 1225.97,494.45 C1226.51,491.24 1228.90,485.24 1230.83,482.51 C1234.56,477.39 1249.13,465.04 1254.39,460.95 C1260.10,456.71 1278.64,443.97 1280.43,442.58 C1283.77,439.96 1289.72,434.09 1292.28,430.89 C1294.81,427.68 1299.11,420.65 1300.82,416.92 C1303.78,410.37 1306.91,395.99 1307.25,388.21 C1307.56,380.40 1305.74,362.47 1303.74,354.53 C1302.68,350.40 1299.94,342.58 1298.26,338.91 C1296.56,335.24 1292.56,328.38 1290.25,325.18 C1285.91,319.23 1275.17,308.92 1269.01,304.65 C1262.83,300.40 1248.40,293.27 1240.39,290.49 C1236.21,289.06 1228.31,287.08 1224.37,286.47 C1220.43,285.89 1212.69,285.51 1208.88,285.71 C1205.07,285.94 1197.59,287.19 1193.92,288.21 C1190.39,289.21 1182.44,292.35 1178.80,294.21 C1174.92,296.21 1167.32,301.11 1163.60,304.00 C1156.16,309.83 1143.68,323.20 1135.19,334.27 C1121.90,351.29 1114.12,360.42 1112.75,361.51 C1111.86,362.18 1112.30,359.98 1113.61,357.29 C1115.12,354.24 1128.15,331.69 1131.40,324.58 C1133.59,319.75 1137.02,310.27 1138.25,305.63 C1139.48,300.93 1140.90,291.97 1141.15,287.92 C1141.38,283.93 1140.98,276.16 1140.35,272.35 C1139.71,268.54 1137.56,261.09 1136.06,257.44 C1133.27,250.74 1124.15,236.60 1118.94,230.69 C1113.67,224.74 1101.60,214.70 1095.50,210.91 C1089.19,207.02 1075.01,200.75 1067.11,198.36 C1058.92,195.91 1042.94,193.27 1034.91,193.05 C1027.04,192.87 1011.90,194.59 1003.50,196.96 C995.92,199.14 980.90,205.54 973.46,209.76 C966.26,213.87 952.25,223.75 946.45,228.78 C940.68,233.81 930.75,244.78 926.50,250.97 C922.00,257.57 915.66,271.26 913.79,278.38 C912.84,282.09 911.84,289.17 911.76,292.87 C911.70,296.57 912.43,304.10 913.22,307.94 C914.77,315.22 921.63,332.22 926.83,341.07 C933.17,351.77 958.89,384.13 959.35,385.10 C959.41,385.24 929.73,352.51 923.00,346.89 C919.12,343.67 910.97,338.04 906.70,335.62 C898.02,330.76 881.09,325.02 873.43,323.59 C866.18,322.26 850.84,321.43 842.76,321.92 C834.67,322.44 817.53,325.33 809.03,327.59 C800.71,329.82 785.58,335.58 778.79,339.11 C772.01,342.66 759.94,351.06 754.47,356.09 C748.80,361.34 739.23,373.59 735.41,380.50 C731.62,387.43 726.08,402.47 724.02,411.30 C722.14,419.42 720.30,434.97 720.33,442.41 C720.39,449.84 722.49,464.50 724.79,471.85 C727.25,479.64 734.63,494.26 739.55,501.10 C744.07,507.34 756.51,520.40 762.19,526.11 C767.69,531.41 779.15,541.70 783.06,544.89 C785.92,547.22 795.22,553.62 799.79,556.21 C807.57,560.58 821.19,564.36 826.78,565.92 C827.76,566.20 829.57,566.73 830.40,566.97" fill="none" stroke="rgb(255, 255, 255)" stroke-width="25.00" stroke-opacity="1.00" stroke-linejoin="miter"/>
</g>
</svg>
