<?xml version="1.0" encoding="UTF-8" standalone="no"?>
<!DOCTYPE svg PUBLIC "-//W3C//DTD SVG 1.1//EN" "http://www.w3.org/Graphics/SVG/1.1/DTD/svg11.dtd">
<svg width="258.00" height="258.00" viewBox="0.00 0.00 2150.00 2150.00" xmlns="http://www.w3.org/2000/svg" xmlns:xlink="http://www.w3.org/1999/xlink">
<g stroke-linecap="round" transform="translate(-24.00, -42.00)" id="pruebas_-_copia">
<path d="M964.73,989.91 C964.98,1016.99 965.62,1084.36 966.63,1121.20 C967.43,1136.85 969.37,1160.81 970.44,1166.37 C971.60,1172.38 974.82,1181.99 976.71,1185.10 C978.28,1187.62 983.02,1192.14 985.02,1193.39 C987.09,1194.65 991.34,1195.78 993.54,1195.58 C995.78,1195.32 1000.26,1193.10 1002.54,1191.11 C1005.08,1188.82 1008.63,1182.42 1010.09,1177.44 C1012.20,1170.01 1013.31,1153.74 1013.68,1147.34 C1014.25,1132.80 1014.78,1097.58 1014.91,1078.66 C1014.68,1041.22 1014.34,987.44 1014.23,971.11" fill="none" stroke="rgb(40, 38, 36)" stroke-width="34.74" stroke-opacity="1.00" stroke-linejoin="miter"/>
<path d="M1070.00,955.57 C1070.23,981.43 1070.90,1046.81 1071.33,1086.35 C1071.85,1104.03 1073.09,1136.96 1073.93,1150.58 C1074.77,1161.52 1076.84,1176.16 1080.43,1184.34 C1082.09,1188.02 1086.14,1192.82 1088.50,1194.70 C1090.60,1196.34 1094.82,1198.19 1096.87,1198.38 C1099.18,1198.54 1103.66,1197.20 1105.94,1195.66 C1108.63,1193.77 1112.52,1189.01 1114.20,1184.82 C1115.89,1180.46 1118.13,1169.33 1118.27,1165.93 C1118.81,1153.42 1119.64,1125.47 1119.94,1110.03 C1119.82,1070.64 1119.33,996.35 1118.96,961.44 C1118.83,949.03 1118.65,931.68 1118.60,926.73" fill="none" stroke="rgb(40, 38, 36)" stroke-width="34.74" stroke-opacity="1.00" stroke-linejoin="miter"/>
<path d="M1175.25,920.43 C1175.47,945.11 1176.03,1007.63 1176.37,1045.47 C1177.16,1082.76 1178.61,1134.46 1179.28,1148.85 C1179.68,1154.99 1180.84,1170.96 1182.89,1179.15 C1184.27,1184.55 1187.66,1192.19 1189.86,1194.82 C1191.72,1196.99 1196.18,1200.51 1198.28,1201.44 C1200.42,1202.36 1204.79,1202.71 1207.02,1202.06 C1209.27,1201.37 1214.25,1197.94 1216.04,1195.80 C1218.15,1193.18 1221.51,1184.63 1222.65,1179.00 C1223.68,1173.74 1224.35,1158.36 1224.58,1152.23 C1224.90,1137.95 1225.33,1106.68 1225.45,1089.69 C1225.11,1048.76 1224.37,973.62 1223.96,939.42 C1223.81,926.88 1223.59,908.04 1223.52,901.75" fill="none" stroke="rgb(40, 38, 36)" stroke-width="34.74" stroke-opacity="1.00" stroke-linejoin="miter"/>
<path d="M1280.21,902.76 C1280.48,926.99 1281.14,987.83 1281.54,1024.44 C1281.83,1045.17 1282.57,1084.01 1283.01,1102.11 C1283.61,1117.53 1284.95,1145.68 1285.69,1158.42 C1285.89,1160.97 1287.01,1170.44 1288.50,1176.37 C1289.88,1181.78 1293.27,1189.41 1295.47,1192.04 C1297.33,1194.21 1301.79,1197.73 1303.88,1198.67 C1306.02,1199.58 1310.39,1199.93 1312.62,1199.28 C1314.87,1198.59 1319.86,1195.16 1321.64,1193.02 C1323.75,1190.40 1327.11,1181.85 1328.25,1176.22 C1329.29,1170.96 1329.94,1155.52 1330.18,1149.36 C1330.48,1134.98 1330.88,1103.49 1330.97,1086.38 C1330.58,1045.31 1329.75,970.53 1329.31,936.81 C1329.16,924.59 1328.93,907.40 1328.87,902.45" fill="none" stroke="rgb(40, 38, 36)" stroke-width="34.74" stroke-opacity="1.00" stroke-linejoin="miter"/>
<path d="M895.49,762.56 C905.60,768.95 937.98,789.45 945.81,795.65 C952.79,801.21 964.92,813.25 970.07,819.88 C972.94,823.59 978.05,831.48 980.21,835.51 C984.52,843.64 987.64,853.32 991.92,867.74 C993.61,873.44 995.90,881.18 996.51,883.23" fill="none" stroke="rgb(40, 38, 36)" stroke-width="34.74" stroke-opacity="1.00" stroke-linejoin="miter"/>
<path d="M1059.42,750.03 C1064.79,761.56 1079.20,792.76 1083.41,806.27 C1086.16,815.14 1089.76,832.92 1090.43,841.75 C1090.69,845.21 1091.28,870.42 1091.30,871.40" fill="none" stroke="rgb(40, 38, 36)" stroke-width="34.74" stroke-opacity="1.00" stroke-linejoin="miter"/>
<path d="M1175.64,761.52 C1175.31,775.61 1174.03,811.36 1172.07,826.10 C1170.77,835.71 1165.69,860.52 1165.24,862.74" fill="none" stroke="rgb(40, 38, 36)" stroke-width="34.74" stroke-opacity="1.00" stroke-linejoin="miter"/>
<path d="M1306.71,722.02 C1300.19,732.41 1281.45,762.27 1275.88,773.60 C1272.12,781.26 1265.73,797.87 1263.68,806.55 C1261.86,814.42 1259.79,840.28 1259.53,843.59" fill="none" stroke="rgb(40, 38, 36)" stroke-width="34.74" stroke-opacity="1.00" stroke-linejoin="miter"/>
<path d="M881.60,982.32 C886.01,1006.29 897.23,1067.30 904.03,1104.34 C910.60,1139.69 924.84,1215.46 931.94,1248.34 C934.13,1257.76 938.07,1272.95 939.55,1276.84 C941.47,1281.83 946.20,1289.68 949.19,1292.84 C950.98,1294.69 955.86,1298.35 959.00,1299.75 C962.04,1301.07 968.45,1302.35 972.50,1302.44 C983.12,1302.55 1019.65,1304.69 1039.38,1307.33 C1060.71,1310.53 1078.57,1315.00 1085.20,1317.23 C1088.47,1318.34 1095.55,1322.03 1098.50,1324.26 C1101.37,1326.48 1105.41,1331.34 1106.72,1334.16 C1109.11,1339.45 1112.71,1357.94 1113.15,1365.75 C1113.71,1376.70 1114.19,1403.41 1114.29,1417.79 C1114.08,1434.15 1112.49,1469.17 1111.07,1487.74 C1109.25,1507.01 1105.54,1538.15 1103.61,1553.36 C1099.00,1585.34 1088.71,1651.73 1084.84,1682.56 C1083.32,1697.21 1080.67,1730.45 1080.17,1749.43 C1080.09,1758.66 1080.43,1776.22 1080.86,1784.55 C1081.46,1792.58 1083.34,1809.24 1084.25,1814.89 C1085.63,1822.70 1088.46,1834.65 1090.29,1840.44 C1092.58,1847.63 1099.18,1861.52 1104.32,1868.19 C1106.87,1871.46 1112.51,1877.09 1115.57,1879.42 C1118.41,1881.56 1125.01,1885.54 1128.16,1887.02 C1131.32,1888.48 1137.64,1890.60 1140.80,1891.24 C1145.13,1892.09 1149.15,1892.09 1153.48,1891.24 C1156.64,1890.60 1162.96,1888.48 1166.11,1887.02 C1169.25,1885.54 1175.84,1881.56 1178.67,1879.42 C1181.72,1877.09 1187.35,1871.46 1189.90,1868.19 C1195.02,1861.52 1201.61,1847.63 1203.89,1840.44 C1205.73,1834.65 1208.55,1822.70 1209.93,1814.89 C1210.84,1809.24 1212.72,1792.58 1213.32,1784.55 C1213.75,1776.22 1214.10,1758.66 1214.02,1749.43 C1213.52,1730.45 1210.87,1697.21 1209.35,1682.56 C1205.48,1651.73 1195.19,1585.34 1190.58,1553.36 C1188.65,1538.15 1184.94,1507.01 1183.12,1487.74 C1181.70,1469.17 1180.11,1434.15 1179.90,1417.79 C1180.00,1403.41 1180.48,1376.70 1181.04,1365.75 C1181.48,1357.94 1185.08,1339.45 1187.47,1334.16 C1188.78,1331.34 1192.82,1326.48 1195.69,1324.26 C1198.64,1322.03 1205.72,1318.34 1208.99,1317.23 C1215.63,1315.00 1227.89,1311.93 1237.20,1310.15 C1245.94,1308.66 1263.27,1306.20 1271.32,1305.27 C1281.71,1304.28 1315.53,1302.50 1321.67,1302.44 C1325.72,1302.34 1332.13,1301.06 1335.17,1299.75 C1338.31,1298.36 1343.24,1294.68 1345.01,1292.82 C1348.04,1289.57 1352.83,1281.61 1354.79,1276.53 C1356.33,1272.51 1360.32,1257.24 1362.49,1247.86 C1369.41,1215.34 1383.08,1139.85 1389.36,1104.60 C1395.75,1068.56 1406.80,1006.99 1411.46,981.47 C1412.38,976.73 1413.43,972.36 1414.58,969.31 C1415.39,967.17 1425.25,943.59 1425.54,942.29 C1425.91,940.49 1425.75,936.69 1425.24,934.86 C1424.08,930.95 1420.83,927.16 1417.64,924.89 C1413.57,922.10 1402.39,916.50 1395.28,913.70 C1387.18,910.52 1371.17,905.58 1361.94,903.55 C1352.70,901.53 1336.34,899.15 1323.99,897.88 C1313.76,896.97 1283.51,895.79 1268.89,895.78 C1261.29,895.96 1245.87,896.46 1237.88,897.01 C1229.72,897.78 1212.88,899.96 1204.20,901.37 C1186.50,904.63 1154.47,912.67 1135.28,918.45 C1119.46,923.61 1086.59,935.49 1069.54,942.21 C1060.81,945.83 1043.29,953.16 1034.51,956.87 C1026.10,960.18 1010.13,965.87 1002.57,968.25 C994.27,970.68 981.47,973.69 975.19,974.69 C968.92,975.68 958.03,976.40 952.38,976.20 C948.82,976.04 940.26,974.75 935.88,973.25 C931.72,971.79 924.64,967.50 921.72,964.67 C918.83,961.82 914.31,954.74 912.66,950.53 C909.52,942.26 904.76,908.65 904.51,903.23 C904.45,901.88 904.43,895.54 905.74,892.15 C906.42,890.48 908.29,888.04 909.41,887.33 C910.55,886.66 913.31,886.31 914.79,886.65 C915.25,886.77 925.04,890.91 929.43,892.11 C933.36,893.17 941.88,894.48 944.50,894.30 C954.66,893.72 978.43,891.57 992.03,890.01 C1024.44,885.48 1094.74,875.39 1132.62,869.83 C1166.41,864.85 1236.46,854.33 1272.71,848.79 C1290.62,845.82 1324.42,839.83 1338.93,836.79 C1354.71,833.10 1373.58,827.49 1383.30,824.35 C1385.71,823.57 1391.14,818.17 1392.85,815.01 C1394.51,811.80 1395.74,804.45 1395.28,800.41 C1393.58,789.19 1393.09,781.35 1393.51,770.45 C1393.55,769.28 1394.10,760.22 1394.89,757.11 C1395.69,754.06 1398.26,748.17 1400.03,745.51 C1403.96,739.69 1411.75,732.50 1424.66,721.46 C1434.44,713.54 1469.78,689.05 1474.46,684.95 C1480.80,679.34 1491.12,666.47 1495.09,659.22 C1499.04,651.92 1503.71,637.97 1505.03,631.06 C1506.36,623.99 1507.35,608.73 1507.00,600.55 C1506.64,592.38 1504.18,574.55 1502.15,566.51 C1500.04,558.29 1494.06,543.18 1490.19,536.30 C1486.30,529.43 1476.99,517.34 1471.54,511.86 C1466.36,506.68 1454.52,497.38 1447.87,493.27 C1441.20,489.17 1426.43,482.05 1418.25,479.00 C1409.47,475.75 1393.55,471.92 1385.56,471.17 C1377.57,470.44 1362.00,471.42 1354.41,473.12 C1347.07,474.80 1331.45,480.94 1324.19,485.03 C1316.68,489.30 1302.09,500.31 1295.01,507.05 C1287.94,513.82 1277.01,526.57 1267.72,538.67 C1242.11,571.61 1236.24,576.65 1236.15,576.54 C1235.39,575.52 1239.90,566.48 1245.30,556.82 C1255.15,539.82 1261.76,527.60 1265.78,517.71 C1269.76,507.87 1274.68,489.00 1275.76,479.51 C1276.64,471.50 1275.99,456.20 1274.46,448.74 C1272.90,441.29 1267.45,427.06 1263.40,419.84 C1259.47,412.87 1250.41,400.12 1245.26,394.30 C1240.10,388.49 1228.79,378.21 1222.40,373.45 C1216.51,369.10 1203.49,361.44 1196.42,358.17 C1189.33,354.92 1173.88,349.49 1165.77,347.40 C1157.60,345.31 1141.30,342.77 1133.19,342.32 C1125.07,341.89 1107.95,342.72 1100.83,343.88 C1094.28,344.98 1078.20,349.47 1070.73,352.31 C1063.25,355.16 1048.40,362.32 1041.03,366.62 C1033.93,370.79 1019.69,380.48 1013.47,385.36 C1007.28,390.24 996.29,400.35 991.50,405.59 C986.70,410.84 977.01,423.62 972.85,430.70 C968.78,437.69 962.69,452.04 960.66,459.46 C958.58,467.17 957.17,482.07 957.80,489.89 C958.46,497.73 962.33,513.20 965.82,522.16 C969.07,530.47 978.15,547.75 983.90,556.58 C990.72,566.99 1022.75,607.29 1023.32,608.25 C1023.63,608.79 1023.63,609.01 1023.31,608.69 C1021.32,606.68 1002.34,585.76 991.12,573.29 C983.60,565.00 968.30,551.62 959.90,546.01 C951.49,540.43 933.34,531.63 923.87,528.53 C916.02,525.98 901.20,522.81 893.70,521.93 C886.20,521.07 870.58,520.68 862.47,521.14 C854.35,521.63 837.51,523.93 828.79,525.74 C820.00,527.59 803.44,532.24 795.72,535.03 C788.02,537.84 773.72,544.40 767.12,548.14 C760.54,551.91 748.61,560.29 743.01,565.07 C736.88,570.35 726.49,581.53 721.89,587.79 C717.31,594.07 709.52,607.79 706.31,615.24 C703.11,622.70 698.23,638.31 696.26,647.08 C694.45,655.19 692.21,670.91 691.78,678.53 C691.37,686.14 691.92,700.87 692.88,707.99 C693.95,715.67 697.82,730.63 700.81,738.33 C703.83,746.03 711.67,760.72 716.50,767.71 C721.36,774.72 729.96,784.64 739.06,794.17 C752.95,808.16 775.36,828.67 782.02,833.64 C791.92,840.99 810.28,851.49 817.75,854.06 C818.73,854.40 842.73,861.18 844.45,861.68" fill="none" stroke="rgb(40, 38, 36)" stroke-width="34.74" stroke-opacity="1.00" stroke-linejoin="miter"/>
</g>
</svg>
